<?xml version="1.0" encoding="utf-8"?>
<!-- Generator: Adobe Illustrator 18.1.1, SVG Export Plug-In . SVG Version: 6.00 Build 0)  -->
<svg version="1.1" id="레이어_1" xmlns="http://www.w3.org/2000/svg" xmlns:xlink="http://www.w3.org/1999/xlink" x="0px"
	 y="0px" viewBox="0 0 292.3 292.3" enable-background="new 0 0 292.3 292.3" xml:space="preserve">
<g>
	<path fill="#FFFFFF" d="M148,165.2v-2c-7.1-8.9-11.3-20.1-11.3-32.3c0-9,2.3-17.5,6.4-24.9c-4.2-7.1-11.7-11.9-24.7-11.9
		c-4.2,0-7.7,0.5-10.8,1.4V77.1c0-5.2-4.2-9.4-9.4-9.4c-5.2,0-9.4,4.2-9.4,9.4v29.1v4.6v22.9v1.7v29.7c0,5.2,4.2,9.4,9.4,9.4
		c5.2,0,9.4-4.2,9.4-9.4v-34.3v-4.7v-1.1c0-3.8,0.7-13.8,10.8-13.8c11.3,0,10.8,12.5,10.8,14.8v39c0,5.2,4.2,9.4,9.4,9.4
		C143.8,174.6,148,170.4,148,165.2z"/>
	<path fill="#FFFFFF" d="M222.5,185.6c-1.4,0-2.3,0.9-2.9,2.7l-5.8,18.4h-0.1l-5.6-18.4c-0.6-1.8-1.5-2.7-3.1-2.7
		c-1.5,0-3.1,0.7-3.1,2.7c0,0.5,0.1,1.1,0.4,1.8l7.6,21.4c0.6,1.8,1.8,2.1,3.8,2.1c1.9,0,3.1-0.4,3.8-2.1l7.8-21.4
		c0.3-0.7,0.4-1.3,0.4-1.8C225.6,186.3,224,185.6,222.5,185.6z"/>
	<path fill="#FFFFFF" d="M195.4,185.6h-1.7c-1.9,0-2.8,0.8-3.5,2.8l-5.3,17.4h-0.1l-5.4-17.4c-0.6-2.1-1.5-2.8-3.5-2.8h-1.8
		c-1.7,0-3.3,0.6-3.3,3v22c0,1.5,0.8,3,2.7,3c2,0,2.7-1.5,2.7-3v-16.8h0.1l5.8,18c0.4,1.3,1.4,1.8,2.6,1.8c1.3,0,2.2-0.5,2.6-1.8
		l5.7-18h0.1v16.8c0,1.5,0.8,3,2.7,3c2,0,2.7-1.5,2.7-3v-22C198.7,186.2,197,185.6,195.4,185.6z"/>
	<path fill="#FFFFFF" d="M152.9,193c-2.7,0-4.9,1.1-5.8,3.5H147v-0.9c0-1.7-0.9-2.6-2.5-2.6c-1.7,0-2.5,0.9-2.5,2.6v22.6
		c0,1.8,1.1,2.7,2.7,2.7c1.7,0,2.7-0.9,2.7-2.7v-7.3h0.1c1,1.8,2.9,2.8,5.4,2.8c5.8,0,8.5-4.9,8.5-10.2
		C161.5,196.4,157.4,193,152.9,193z M151.6,209.4c-3.3,0-4.4-3.3-4.4-6.1c0-3.1,1.2-6,4.4-6c2.9,0.1,4.4,2.7,4.4,6
		C156,205.9,155.1,209.4,151.6,209.4z"/>
	<path fill="#FFFFFF" d="M107.8,193c-3.1,0-5.1,1.4-6.7,3.5H101v-0.7c0-1.6-0.7-2.7-2.5-2.7c-1.7,0-2.5,1.1-2.5,2.7v15.2
		c0,1.5,0.6,2.7,2.7,2.7c2.1,0,2.7-1.3,2.7-2.7v-9.1c0-2.7,2.3-4.3,4.2-4.3c2.4,0,3.5,1.6,3.5,3.8v9.6c0,1.5,0.6,2.7,2.7,2.7
		c2.1,0,2.7-1.3,2.7-2.7v-10.7C114.7,194.7,111.1,193,107.8,193z"/>
	<path fill="#FFFFFF" d="M83.7,150c0.6-15.6-13.5-21.3-25.3-25.6c-3.9-1.4-10-2.8-12.7-6.3c-2.5-3.2-1.1-7,2.1-8.8
		c9.2-5.4,19.4,7.8,27.8,1.6c4.2-3.1,4.3-9.1,0.8-12.8c-3.5-3.8-10.1-6.1-15-6.9C54.8,90,47.1,90,40.7,92.4
		c-10.6,3.9-14.9,10.8-16,18.8c-2.8,19.3,16.6,24.9,30.6,29.5c3.8,1.2,9,4.3,7.3,9c-1.1,3.4-4.2,5.3-8.7,5.8
		c-5.6,0.7-11.6-1.3-16.2-4.5c-4.2-2.9-13-4-15.9,1.4c-2.4,4.6-1.4,9.4,2.3,12.9c6.9,6.5,18.5,10,29.6,9.5
		C68.9,174.2,83.1,166.2,83.7,150z"/>
	<path fill="#FFFFFF" d="M85.2,197.5l-5.1-1.2c-2-0.5-4.2-1.1-4.2-2.9c0-1.9,1.6-3.2,4.4-3.2c5.8,0,5.2,4,8.1,4
		c1.5,0,2.8-0.9,2.8-2.4c0-3.6-5.7-6.3-10.5-6.3c-5.2,0-10.8,2.3-10.8,8.3c0,2.9,1,6,6.6,7.4l7,1.8c2.1,0.5,2.6,1.7,2.6,2.8
		c0,1.8-1.8,3.6-5,3.6c-6.2,0-5.4-4.9-8.7-4.9c-1.5,0-2.6,1.1-2.6,2.6c0,2.9,3.5,6.8,11.3,6.8c7.4,0,11.1-3.6,11.1-8.5
		C92.2,202.1,90.8,198.8,85.2,197.5z"/>
	<path fill="#FFFFFF" d="M137.3,198.7c0-3.9-3.6-5.6-8.9-5.6c-5.6,0-8.7,2.8-8.7,5c0,1.1,0.9,2.1,2.3,2.1c2.2,0,2.3-3,6.4-3
		c1.8,0,3.5,0.7,3.5,2.3c0,1.6-1.1,1.9-2.4,2l-3.3,0.4c-4.2,0.5-7.7,1.8-7.7,6.3c0,3.5,3.1,5.6,6.2,5.6c2.9,0,5.4-0.8,7.5-3.2
		c0.1,1.7,0.9,3.2,3.2,3.2c1.3,0,2.5-0.9,2.5-2.1c0-0.9-0.6-1.4-0.6-3.7V198.7z M131.8,206.1c0,2-1.8,4-4.9,4c-1.9,0-3-1-3-2.3
		c0-1.7,1.2-2.4,3.5-2.7l2-0.3c0.6-0.1,1.8-0.3,2.4-0.9V206.1z"/>
	<path fill="#FFFFFF" d="M260.3,0H32C14.4,0,0,14.4,0,32v228.2c0,17.6,14.4,32,32,32h228.2c17.6,0,32-14.4,32-32V32
		C292.3,14.4,277.9,0,260.3,0z M280.3,104v66.8c0,18.5-5.2,34.8-16.9,44.7c-11.3,9.5-28.1,14.4-48.5,14.4h-158
		c-32.5,0-45,13.7-45,13.7V127c0-3.8-0.1-15.7,0.3-18.8c0.8-7.4,4.8-32.7,39-32.7c15.1,0,22.7,5.6,22.7,5.6s-1.2-28.3,24.3-28.3
		c26.2,0,23.5,26.2,23.5,26.2s20.8-1.2,29,13.1c0,0,12.1-14.5,36.4-14.7c20-0.2,31.1,9,31.1,9s-0.2-30,25-30
		c19.1,0,23.9,12.1,24,22.3c0.1,6.1,0.1,4.1,0.1,4.1C281.9,82.6,280.3,93.8,280.3,104z"/>
	<path fill="#FFFFFF" d="M188.5,90.4c-22.4,0-40.5,18.1-40.5,40.5c0,22.4,18.1,40.5,40.5,40.5s40.5-18.1,40.5-40.5
		C229,108.5,210.9,90.4,188.5,90.4z M188.7,158.3c-15,0-27.2-12.2-27.2-27.2c0-15,12.2-27.2,27.2-27.2c15,0,27.2,12.2,27.2,27.2
		C215.8,146.2,203.7,158.3,188.7,158.3z"/>
	<path fill="#FFFFFF" d="M263.2,161.5c-1-0.7-2.2-1.1-3.7-1.1H257c-3.2,0-4.6-1.7-4.6-4.8v-48.1h5.4c0.1,0,0.2,0,0.2,0h0.2h0.1
		c0.5,0,1,0,1.5-0.1c0.1,0,0.3,0,0.4-0.1c2-0.3,3.5-1,4.4-2.3c0.9-1.1,1.4-2.6,1.4-4.3c0-1.7-0.5-3.2-1.4-4.3
		c-0.9-1.3-2.4-2-4.5-2.3c-0.1,0-0.2,0-0.4,0c-0.5-0.1-1-0.1-1.6-0.1c0,0,0,0,0,0H258c-0.1,0-0.2,0-0.3,0h-5.4V79
		c0-6.8-3.9-10.3-9.3-10.3c-5.3,0-9.3,3.5-9.3,10.3v14.9h-3c-0.1,0-0.2,0-0.3,0h-1.3c-1.4,0-2.6,0.2-3.6,0.6
		c9.2,9.4,14.9,22.2,14.9,36.4c0,9.2-2.4,17.9-6.7,25.4v1.8c0,11.6,5.8,17.8,17.4,18.3l0,0h1.3c0.1,0,0.2,0,0.4,0c0.2,0,0.3,0,0.5,0
		h4.7c6.2,0,9.4-3.2,9.4-8C267.3,165.3,265.9,162.8,263.2,161.5z"/>
	
		<ellipse transform="matrix(0.7765 -0.6301 0.6301 0.7765 -34.3218 140.1652)" fill="#FFFFFF" cx="180.4" cy="118.5" rx="8.3" ry="6.7"/>
	<circle fill="#FFFFFF" cx="188.9" cy="130.6" r="4"/>
</g>
<g>
</g>
<g>
</g>
<g>
</g>
<g>
</g>
<g>
</g>
<g>
</g>
</svg>
