<?xml version="1.0" encoding="utf-8"?>
<!-- Generator: Adobe Illustrator 18.1.1, SVG Export Plug-In . SVG Version: 6.00 Build 0)  -->
<svg version="1.1"
	 id="svg2" xmlns:svg="http://www.w3.org/2000/svg" xmlns:rdf="http://www.w3.org/1999/02/22-rdf-syntax-ns#" xmlns:dc="http://purl.org/dc/elements/1.1/" xmlns:cc="http://creativecommons.org/ns#"
	 xmlns="http://www.w3.org/2000/svg" xmlns:xlink="http://www.w3.org/1999/xlink" x="0px" y="0px" viewBox="-179 249.2 252.1 294.8"
	 enable-background="new -179 249.2 252.1 294.8" xml:space="preserve">
<g id="g10" transform="matrix(1.3333333,0,0,-1.3333333,0,294.832)">
	<g id="g12">
		<g>
			<defs>
				<rect id="SVGID_1_" x="-165.8" y="-223.7" width="252.1" height="294.8"/>
			</defs>
			<clipPath id="SVGID_2_">
				<use xlink:href="#SVGID_1_"  overflow="visible"/>
			</clipPath>
			<g id="g14" clip-path="url(#SVGID_2_)">
				<g id="g20" transform="translate(132.0344,193.4463)">
					<path id="path22" fill="#1E3455" d="M-134.3-186.9l0.9,1.7l2.9-1.5l3.4,6.4l-11.2,6l-3.4-6.4l3.2-1.7l-0.8-1.6
						c-8.5,4.5-18,7.3-28.1,7.9v5.2h1.2c3.2,0,5.8,2.6,5.8,5.8c0,3.2-2.6,5.8-5.8,5.8h-12.8c-3.2,0-5.8-2.6-5.8-5.8
						c0-3.2,2.6-5.8,5.8-5.8h0.3v-5.4c-9.3-1-18-3.8-25.9-8l-1.4,2.2l2.7,1.8l-4,6.1l-10.6-6.9l4-6.1l3,2l1.3-2
						c-18.8-12.4-31.2-33.7-31.2-57.9c0-38.3,31-69.3,69.3-69.3c38.3,0,69.3,31,69.3,69.3C-102.3-220.7-115.1-199.2-134.3-186.9"/>
				</g>
				<g id="g24" transform="translate(154.1555,135.1289)">
					<path id="path26" fill="#EC2E40" d="M-134.2-186.9c0,33.1-26.8,60-60,60c-33.1,0-60-26.8-60-60c0-33.1,26.8-60,60-60
						C-161.1-246.8-134.2-220-134.2-186.9"/>
				</g>
				<g id="g28" transform="translate(97.0822,172.7012)">
					<path id="path30" fill="#FFFFFF" d="M-134.3-186.9c0-1.6-1.3-2.9-2.9-2.9c-1.6,0-2.9,1.3-2.9,2.9v14.5c0,1.6,1.3,2.9,2.9,2.9
						c1.6,0,2.9-1.3,2.9-2.9V-186.9z"/>
				</g>
				<g id="g32" transform="translate(97.0822,83.2334)">
					<path id="path34" fill="#B62F3C" d="M-134.3-186.9c0-1.6-1.3-2.9-2.9-2.9c-1.6,0-2.9,1.3-2.9,2.9v14.5c0,1.6,1.3,2.9,2.9,2.9
						c1.6,0,2.9-1.3,2.9-2.9V-186.9z"/>
				</g>
				<g id="g36" transform="translate(115.7619,166.0547)">
					<path id="path38" fill="#FFFFFF" d="M-134.3-186.9c-0.8-1.4-2.6-1.8-4-1c-1.4,0.8-1.8,2.6-1,4l7.4,12.4c0.8,1.4,2.6,1.8,4,1
						c1.4-0.8,1.8-2.6,1-4L-134.3-186.9z"/>
				</g>
				<g id="g40" transform="translate(70.2497,89.0293)">
					<path id="path42" fill="#B62F3C" d="M-134.3-186.9c-0.8-1.4-2.6-1.8-4-1c-1.4,0.8-1.8,2.6-1,4l7.4,12.4c0.8,1.4,2.6,1.8,4,1
						c1.4-0.8,1.8-2.6,1-4L-134.3-186.9z"/>
				</g>
				<g id="g44" transform="translate(129.0871,149.7031)">
					<path id="path46" fill="#FFFFFF" d="M-134.3-186.9c-1.4-0.8-3.1-0.3-3.9,1.1c-0.8,1.4-0.3,3.1,1.1,3.9l12.5,7.2
						c1.4,0.8,3.2,0.3,3.9-1.1c0.8-1.4,0.3-3.2-1.1-3.9L-134.3-186.9z"/>
				</g>
				<g id="g48" transform="translate(51.4758,105.1982)">
					<path id="path50" fill="#B62F3C" d="M-134.3-186.9c-1.4-0.8-3.2-0.3-3.9,1.1c-0.8,1.4-0.3,3.2,1.1,3.9l12.5,7.2
						c1.4,0.8,3.2,0.3,3.9-1.1c0.8-1.4,0.3-3.2-1.1-3.9L-134.3-186.9z"/>
				</g>
				<g id="g52" transform="translate(131.6887,131.5566)">
					<path id="path54" fill="#FFFFFF" d="M-134.3-186.9c-1.6,0-2.9,1.3-2.9,2.9c0,1.6,1.3,2.9,2.9,2.9l14.5-0.1
						c1.6,0,2.9-1.3,2.9-2.9c0-1.6-1.3-2.9-2.9-2.9L-134.3-186.9z"/>
				</g>
				<g id="g56" transform="translate(42.2238,131.876)">
					<path id="path58" fill="#B62F3C" d="M-134.3-186.9c-1.6,0-2.9,1.3-2.9,2.9c0,1.6,1.3,2.9,2.9,2.9l14.5-0.1
						c1.6,0,2.9-1.3,2.9-2.9c0-1.6-1.3-2.9-2.9-2.9L-134.3-186.9z"/>
				</g>
				<g id="g60" transform="translate(125.1789,112.5976)">
					<path id="path62" fill="#FFFFFF" d="M-134.3-186.9c-1.4,0.8-1.8,2.6-1,3.9c0.8,1.4,2.6,1.8,4,1l12.5-7.3c1.4-0.8,1.9-2.6,1-3.9
						c-0.8-1.4-2.6-1.9-3.9-1.1L-134.3-186.9z"/>
				</g>
				<g id="g64" transform="translate(47.8063,157.5127)">
					<path id="path66" fill="#B62F3C" d="M-134.3-186.9c-1.4,0.8-1.9,2.6-1,4c0.8,1.4,2.6,1.8,4,1l12.5-7.3c1.4-0.8,1.8-2.6,1-3.9
						c-0.8-1.4-2.6-1.9-3.9-1L-134.3-186.9z"/>
				</g>
				<g id="g68" transform="translate(109.5637,101.3232)">
					<path id="path70" fill="#B62F3C" d="M-134.3-186.9c-0.8,1.4-0.3,3.1,1.1,3.9c1.4,0.8,3.1,0.3,3.9-1.1l7.2-12.5
						c0.8-1.4,0.3-3.2-1.1-3.9c-1.4-0.8-3.1-0.3-4,1.1L-134.3-186.9z"/>
				</g>
				<g id="g72" transform="translate(64.7399,178.7529)">
					<path id="path74" fill="#B62F3C" d="M-134.3-186.9c-0.8,1.4-0.3,3.1,1.1,3.9c1.4,0.8,3.1,0.3,3.9-1.1l7.2-12.5
						c0.8-1.4,0.3-3.2-1.1-3.9c-1.4-0.8-3.2-0.3-3.9,1.1L-134.3-186.9z"/>
				</g>
				<g id="g76" transform="translate(124.4914,135.1289)">
					<path id="path78" fill="#1E3455" d="M-134.3-186.9c0,16.7-13.6,30.3-30.3,30.3c-16.7,0-30.3-13.6-30.3-30.3
						c0-16.7,13.6-30.3,30.3-30.3C-147.8-217.2-134.3-203.6-134.3-186.9"/>
				</g>
				<g id="g80" transform="translate(84.0856,154.1855)">
					<path id="path82" fill="#FFFFFF" d="M-134.3-186.9V-225l29.5,19.1L-134.3-186.9z"/>
				</g>
				<g id="g84" transform="translate(187.3019,96.0849)">
					<path id="path86" fill="#223559" d="M-134.2-186.9c-3-0.6-5.6-1.2-8.6-1.8c-6.8-1.4-13.4-2.5-20-3.5c0,1,0,1.9,0,2.9
						c0,1.2,0,2.4,0,3.7c0,1.1-1,1.8-2.2,1.6c-3.1-0.5-6.1-1.1-9.2-1.5c-5.8-0.9-11.8-2.3-17.7-2.9c-3-0.3-6-1.2-9-1.4c0,0,0,0,0,0
						c-0.6,0-1.2,0.3-1.6,0c-0.4-0.4-0.7-0.6-0.7-1.1c0-1.9,0-3.7,0-5.6c-2.8-0.2-5.7-0.2-8.5-0.3c-2.9,3.8-6.9,6.6-12.4,9.1
						c-6.8,3.1-15.4,4.8-24.9,5.5c-2.1,0.2-4.2,0.3-6.2,0.5c-10.4,1-19.9,1-27.2-2c-0.1,0-0.2,0.6-0.3,0.7c-0.3,0.1-0.7,0.7-1,0.8
						c-0.1,0-0.1,0-0.2,0c-1.3,0.2-2.7,0-4,0.2c-1.6,0.3-3.2,0.3-4.8,0.6c-1.2,0.2-2.5,0.4-3.8,0.7c-1.7,0.4-3.4,0.7-5.1,1
						c-0.6,0.1-1.2,0.2-1.8,0.4c-5.7,1.3-10.8,2.6-16.6,4.2c-1.2,0.3-1.5-0.5-1.5-1.7c0-33.9,0-67.8,0-101.7c0-0.7-0.3-1.3,0.2-1.7
						c0.6-0.4,0.9-0.6,1.5-0.4c1.6,0.4,2.9,0.8,4.4,1.1c2.3,0.6,4.4,1.1,6.6,1.6c5.2,1.1,10.7,2.2,16.4,3.1c1.3,0.2,2.7,0.4,4.3,0.7
						c6.2-4.8,14.6-7.2,24.2-7.2c1.8,0,3.6,0.1,5.4,0.2c4.2,0.4,8.4,0.6,12.6,0.9c6.2,0.3,12.3,1.5,18,3.5c3.7,1.3,7.1,2.9,10.2,5
						c25-0.6,49.9-2.9,74.1-8.7c0.4-0.1,0.9-0.2,1.3-0.3c2.6-0.6,5.3-1.3,7.4-1.9c0.2-0.1,0.5-0.1,0.7-0.1c0.5,0,0.6,0.1,1,0.4
						c0.6,0.4,0.6,1.1,0.6,1.8v92.3C-132.5-187.4-133.1-186.6-134.2-186.9"/>
				</g>
				<g id="g88" transform="translate(10.2873,85.084)">
					<path id="path90" fill="#FFFFFF" d="M-134.3-186.9L-134.3-186.9V-256c5.6,1.4,11.1,2.7,16.8,3.7c0,24.6,0,49.2,0,73.8
						c-5.6,1.2-11.2,2.6-16.7,4.1V-186.9z"/>
				</g>
				<g id="g92" transform="translate(103.1642,67.9258)">
					<path id="path94" fill="#FFFFFF" d="M-134.3-186.9c9.8,0.1,19.5,0.5,29.2,1.1c-1.2-15-15.7-16.5-31.6-17.1
						c-1.6,1.8-3.4,2.9-5.1,4.1C-138.2-195.8-135.2-192.3-134.3-186.9 M-168-227.2c-10.1-0.5-18.2,4.2-18.2,11.9s8.1,13.2,18.2,13
						c10.1-0.1,18.3-5.2,18.3-12.3C-149.6-221.6-157.9-226.7-168-227.2 M-168-171.6c8.1-0.6,14.8-4.7,14.8-10.4
						c0-5.7-6.6-9.6-14.8-9.4c-8.1,0.2-14.7,4.7-14.7,10.9C-182.7-174.3-176.1-171-168-171.6 M-58.9-228.1
						c-10.3,2-20.8,3.4-31.3,4.3c0,3.4,0,6.7,0,10.1c-5.9,0.3-11.8,0.5-17.7,0.6c0-3.1,0-6.3,0-9.4c-8,0.4-16,0.7-24.1,0.8
						c0.5,1.8,0.7,4.6,0.7,6.6c0,0.7-0.1,1.9-0.2,2.5c12.4,0.6,26,2.9,33.8,10.7c10-9.5,27-12.2,38.8-13.5v13.6
						c-16.2,0.8-27.2,0.4-28.5,17.3c9.6,0.8,19.1,1.8,28.5,2.8v13.4c-10.3-2.1-20.8-3.8-31.3-5.2c0,2.7,0,5.4,0,8
						c-5.9-1-11.8-1.8-17.7-2.4c0-2.5,0-5,0-7.5c-9.1-0.8-18.2-1.3-27.3-1.5c-3.7,9.3-15.5,13.6-29.7,14.7c-2.1,0.2-4.2,0.4-6.3,0.6
						c-17.1,1.9-30.4-1.3-30.4-18c0-7.8,3.5-13.4,7.7-17.5c-5.1-3.9-10.3-12.1-10.3-20.1c0-17.3,12.8-25.4,29.9-23.5
						c4.2,0.4,8.4,0.7,12.7,0.9c9.8,0.5,18.1,3.4,23.6,8c26.8-0.4,53.5-2.7,79.3-9.8L-58.9-228.1L-58.9-228.1z"/>
				</g>
			</g>
		</g>
	</g>
</g>
</svg>
